<svg width="150" height="25" viewBox="0 0 150 25" fill="none" xmlns="http://www.w3.org/2000/svg">
<path fill-rule="evenodd" clip-rule="evenodd" d="M26.6229 22.4222C27.1443 22.1047 27.6049 21.6867 27.9845 21.1957C28.6812 20.3635 29.1204 19.3117 29.1131 18.2139C29.1055 17.1295 28.669 16.0949 27.9845 15.2694C27.7682 14.9894 27.52 14.7354 27.2476 14.5119C26.4298 13.8906 25.4627 13.509 24.4498 13.4103C23.5915 13.3276 22.7235 13.3298 21.8643 13.3319C21.7274 13.3323 21.5907 13.3326 21.4543 13.3326H5.53616C5.27596 13.3326 5.03441 13.4784 4.90384 13.7085C4.77403 13.9382 4.78086 14.2174 4.78731 14.4813C4.78869 14.5378 4.79006 14.5936 4.79006 14.6481V16.162V18.1698V20.1937V21.7586V22.3867C4.79006 22.8104 5.12394 23.1537 5.53616 23.1537H13.4999H14.8279H22.3588C23.658 23.1488 24.9478 23.1306 26.1463 22.6618C26.2873 22.6078 26.4263 22.5309 26.5656 22.4538C26.5847 22.4432 26.6038 22.4327 26.6229 22.4222ZM4.79006 6.93163V8.98251C4.79006 9.26836 4.78936 9.5542 4.78866 9.83993C4.78796 10.1254 4.78726 10.4108 4.78726 10.6959C4.78631 11.1322 5.08663 11.5416 5.53616 11.5416H22.3588C22.3663 11.5406 22.8551 11.5406 22.8551 11.5406C24.1571 11.5329 25.4608 11.393 26.6416 10.8215C27.1712 10.5156 27.6404 10.1091 28.0218 9.623C28.7035 8.82143 29.1541 7.81182 29.1692 6.74659C29.1735 6.35924 29.098 5.97571 28.9918 5.60561C28.6382 4.43012 27.9043 3.41569 26.912 2.7292C25.832 2.07049 24.5945 1.73779 23.34 1.77039H22.3692C22.3588 1.76751 5.53616 1.76751 5.53616 1.76751C5.12394 1.76751 4.79006 2.11173 4.79006 2.53551V3.16449V4.81076V6.93163ZM30.3533 15.9415C30.5371 16.3922 30.6592 16.8668 30.7255 17.351C30.7965 17.8658 30.802 18.3913 30.7488 18.9081C30.6061 20.3061 29.9906 21.5812 29.0663 22.6053C28.5841 23.1382 28.0237 23.5918 27.4063 23.9475C27.0063 24.1873 26.5847 24.3867 26.1463 24.541C25.7873 24.6561 25.4198 24.7482 25.0467 24.8008C24.4873 24.8794 23.8837 24.9045 23.3196 24.9018C22.0432 24.8959 20.7826 24.8978 19.5165 24.8998C18.8814 24.9008 18.2449 24.9018 17.6044 24.9018H8.29486H0.420692C0.283594 24.9018 0.178208 24.8794 0.080282 24.8008C0.0308527 24.749 0.00473912 24.681 0.00567175 24.6092V23.5439C0.00567175 23.5341 0.00558761 23.5212 0.00549514 23.5071C0.00527977 23.474 0.00501924 23.434 0.00567175 23.4106C0.00753702 23.3376 0.0411116 23.2686 0.0989345 23.2284C0.166084 23.1806 0.217378 23.1641 0.323698 23.1565C0.358101 23.154 0.408286 23.154 0.46359 23.154C0.492244 23.1541 0.522273 23.1541 0.552192 23.1537C0.656835 23.1524 0.834859 23.1529 0.984299 23.1533C1.04929 23.1535 1.10888 23.1537 1.15467 23.1537H2.45755C2.86976 23.1537 3.20459 22.8104 3.20459 22.3867V21.3731V19.4507V18.4248V16.6664V16.3049C3.20459 16.0777 3.20581 15.8502 3.20703 15.6227C3.20794 15.4528 3.20885 15.2828 3.20926 15.1131C3.20926 15.0604 3.20929 15.0078 3.20933 14.9551C3.20948 14.7431 3.20962 14.531 3.20739 14.3183C3.20551 14.0316 3.18127 13.7622 2.9649 13.5503C2.78024 13.37 2.54241 13.3384 2.299 13.3384H1.14348H0.353541C0.234165 13.3355 0.112924 13.2904 0.0560337 13.1754C0.0243243 13.1111 0.0140654 13.0383 0.00846965 12.9664C-1.33578e-05 12.8617 0.00173911 12.7562 0.0034963 12.6505C0.00444373 12.5935 0.00539252 12.5364 0.00473912 12.4793C0.00426014 12.4401 0.00371712 12.401 0.00317452 12.362C0.0016041 12.249 3.72608e-05 12.1362 3.72608e-05 12.0229C3.72608e-05 12.0175 2.78707e-05 12.0121 1.85183e-05 12.0067C-0.000132446 11.9198 -0.000273594 11.8386 0.0392463 11.7583C0.0812147 11.6758 0.150229 11.6087 0.237896 11.5818C0.314111 11.5583 0.409011 11.5598 0.494603 11.5611C0.513748 11.5614 0.532427 11.5617 0.550327 11.5617C0.842902 11.5608 1.13658 11.556 1.43028 11.5512C1.74139 11.5462 2.05252 11.5411 2.36243 11.5406L2.36966 11.5406C2.48996 11.5396 2.60066 11.5388 2.71496 11.4955C2.80916 11.4601 2.89682 11.4045 2.97049 11.3325C3.11878 11.1887 3.20459 10.9855 3.20459 10.7745L3.20459 10.7724C3.20455 10.6503 3.20275 5.25899 3.20459 3.44829C3.20459 3.40266 3.20469 3.35692 3.20479 3.31111C3.205 3.21928 3.2052 3.12717 3.20459 3.03506C3.20273 2.91041 3.20365 2.66016 3.20459 2.53551C3.20459 2.11173 2.86604 1.7723 2.45382 1.7723C2.23745 1.7723 1.59114 1.76943 1.59114 1.76943H0.555922C0.322765 1.76943 0.014998 1.75121 0.014998 1.4348V0.321631C0.014998 0.143294 0.148364 0.00618455 0.313439 0.00618455H7.31747H21.68H22.6125C23.7812 -0.0312088 24.9488 0.101106 26.082 0.399294C26.5306 0.543116 26.9604 0.745424 27.3596 1.00334C27.978 1.35043 28.5414 1.79435 29.029 2.3169C29.2155 2.51922 29.3927 2.73302 29.5541 2.95835C29.9449 3.50486 30.249 4.11563 30.4522 4.75994C30.552 5.07922 30.6247 5.40714 30.6714 5.73888C30.7796 6.51263 30.7712 7.3209 30.6294 8.08986C30.5586 8.47531 30.4308 8.84157 30.2788 9.20112C30.0941 9.63929 29.8665 10.0573 29.5971 10.4476C29.3247 10.8321 29.0124 11.1858 28.6643 11.5023C28.2504 11.8465 27.8176 12.1657 27.369 12.4611C27.4331 12.5159 27.506 12.5677 27.5795 12.6198C27.6344 12.6588 27.6897 12.6981 27.742 12.7391L28.1151 13.0172C28.3388 13.1897 28.5627 13.3719 28.7678 13.5637C29.1129 13.8954 29.4255 14.2617 29.7006 14.6567C29.9635 15.0594 30.1818 15.4899 30.3533 15.9415ZM83.98 18.7969V19.7474H90.203V18.7969C89.7203 18.7366 89.3959 18.6159 89.23 18.4349C89.064 18.2538 88.9811 17.8767 88.9811 17.3034V2.54902H88.008L83.8894 3.61261V4.54041C84.2515 4.51024 84.5004 4.49515 84.6362 4.49515C85.0284 4.49515 85.3 4.59322 85.4509 4.78934C85.6017 4.98546 85.6772 5.33244 85.6772 5.83029V17.3034C85.6772 17.8465 85.5565 18.2161 85.3151 18.4122C85.0888 18.6084 84.6438 18.7366 83.98 18.7969ZM89.3205 13.7958L93.869 19.7474H98.2817V18.7969C97.9498 18.7064 97.6406 18.5631 97.3539 18.367C97.0673 18.1558 96.841 17.9672 96.675 17.8012C96.5242 17.6353 96.2979 17.3637 95.9962 16.9866L92.5565 12.6417L92.4886 12.5286L94.7515 10.7182C95.8679 9.84324 96.8184 9.36802 97.6029 9.29259V8.34215H92.3755V9.29259C93.2203 9.29259 93.6427 9.49625 93.6427 9.90358C93.6427 10.2506 93.3334 10.6654 92.7149 11.1482L89.3205 13.7958ZM54.2035 12.5739C53.2833 11.8497 52.0387 11.4876 50.4697 11.4876H49.4061V11.3292H50.4697C51.7671 11.2991 52.8232 10.9596 53.6378 10.3109C54.4525 9.64712 54.8598 8.79474 54.8598 7.75379C54.8598 6.51671 54.377 5.56628 53.4115 4.90248C52.4611 4.23869 51.1259 3.90679 49.4061 3.90679H40.7843V4.94774C41.6744 5.02317 42.2552 5.22684 42.5268 5.55874C42.8134 5.87555 42.9567 6.53934 42.9567 7.55012V16.104C42.9567 17.0997 42.8134 17.7711 42.5268 18.1181C42.2552 18.45 41.6744 18.6461 40.7843 18.7064V19.7474H49.7908C51.6313 19.7474 53.057 19.3551 54.0678 18.5706C55.0786 17.7711 55.5839 16.715 55.5839 15.4025C55.5839 14.2258 55.1238 13.2829 54.2035 12.5739ZM46.5096 4.92511H48.2068C49.293 4.92511 50.0699 5.17404 50.5376 5.67188C51.0203 6.15464 51.2617 6.9165 51.2617 7.95745C51.2617 8.90789 50.9977 9.63957 50.4697 10.1525C49.9568 10.6654 49.2251 10.9219 48.2746 10.9219H46.5096V4.92511ZM50.9223 17.8465C50.3188 18.4349 49.4665 18.729 48.3652 18.729H47.5505C46.8565 18.729 46.5096 18.367 46.5096 17.6428V11.9402H48.4557C49.5419 11.9402 50.3716 12.242 50.9449 12.8454C51.5333 13.4338 51.8275 14.2786 51.8275 15.3799C51.8275 16.4209 51.5257 17.2431 50.9223 17.8465ZM63.1775 20.0189C64.8823 20.0189 66.3004 19.4758 67.4319 18.3896C68.5784 17.3034 69.1517 15.8627 69.1517 14.0674C69.1517 12.257 68.5784 10.8088 67.4319 9.72255C66.3004 8.62125 64.8823 8.0706 63.1775 8.0706C61.4728 8.0706 60.0471 8.62125 58.9006 9.72255C57.7691 10.8088 57.2034 12.257 57.2034 14.0674C57.2034 15.8627 57.7691 17.3034 58.9006 18.3896C60.0471 19.4758 61.4728 20.0189 63.1775 20.0189ZM63.1775 18.8648C62.3478 18.8648 61.7368 18.4801 61.3445 17.7107C60.9674 16.9262 60.7788 15.7118 60.7788 14.0674C60.7788 12.4079 60.9674 11.1859 61.3445 10.4014C61.7368 9.61694 62.3478 9.2247 63.1775 9.2247C63.9922 9.2247 64.5881 9.62449 64.9652 10.4241C65.3575 11.2085 65.5536 12.423 65.5536 14.0674C65.5536 15.7118 65.365 16.9262 64.9879 17.7107C64.6107 18.4801 64.0073 18.8648 63.1775 18.8648ZM81.089 18.3896C79.9576 19.4758 78.5395 20.0189 76.8347 20.0189C75.13 20.0189 73.7043 19.4758 72.5578 18.3896C71.4263 17.3034 70.8606 15.8627 70.8606 14.0674C70.8606 12.257 71.4263 10.8088 72.5578 9.72255C73.7043 8.62125 75.13 8.0706 76.8347 8.0706C78.5395 8.0706 79.9576 8.62125 81.089 9.72255C82.2356 10.8088 82.8089 12.257 82.8089 14.0674C82.8089 15.8627 82.2356 17.3034 81.089 18.3896ZM75.0017 17.7107C75.394 18.4801 76.005 18.8648 76.8347 18.8648C77.6645 18.8648 78.2679 18.4801 78.6451 17.7107C79.0222 16.9262 79.2108 15.7118 79.2108 14.0674C79.2108 12.423 79.0147 11.2085 78.6224 10.4241C78.2453 9.62449 77.6494 9.2247 76.8347 9.2247C76.005 9.2247 75.394 9.61694 75.0017 10.4014C74.6246 11.1859 74.436 12.4079 74.436 14.0674C74.436 15.7118 74.6246 16.9262 75.0017 17.7107ZM103.172 20.0416C101.618 20.0416 100.306 19.6795 99.2346 18.9553V16.0135H100.276C100.472 16.8584 100.872 17.5221 101.475 18.0049C102.093 18.4877 102.803 18.729 103.602 18.729C104.13 18.729 104.568 18.6234 104.915 18.4122C105.277 18.201 105.458 17.8691 105.458 17.4165C105.458 16.798 105.088 16.3454 104.349 16.0588L101.95 15.0857C100.155 14.4068 99.2573 13.3206 99.2573 11.8271C99.2573 10.6654 99.6797 9.74518 100.525 9.06629C101.384 8.38741 102.501 8.04797 103.874 8.04797C104.477 8.04797 105.126 8.13094 105.82 8.29689C106.514 8.46284 107.08 8.66651 107.517 8.90789V11.5555H106.521C106.28 10.8012 105.888 10.2355 105.345 9.85832C104.801 9.46608 104.183 9.26996 103.489 9.26996C102.961 9.26996 102.546 9.38311 102.244 9.6094C101.958 9.82061 101.814 10.1072 101.814 10.4693C101.814 11.0879 102.192 11.548 102.946 11.8497L105.661 12.9586C107.215 13.562 107.992 14.603 107.992 16.0814C107.992 17.3034 107.555 18.2689 106.68 18.978C105.82 19.687 104.651 20.0416 103.172 20.0416ZM109.261 18.7969V19.7474H115.484V18.7969C115.002 18.7366 114.677 18.6159 114.511 18.4349C114.345 18.2538 114.262 17.8767 114.262 17.3034V11.3292C114.655 10.5598 115.349 10.1751 116.344 10.1751C116.902 10.1751 117.34 10.3486 117.657 10.6956C117.974 11.0426 118.132 11.5555 118.132 12.2344V17.3713C118.132 17.8691 118.041 18.2237 117.86 18.4349C117.679 18.6461 117.363 18.7668 116.91 18.7969V19.7474H123.133V18.7969C122.499 18.7366 122.054 18.6008 121.798 18.3896C121.557 18.1784 121.436 17.7862 121.436 17.2129V11.8497C121.436 10.5674 121.119 9.61694 120.485 8.99841C119.852 8.37987 118.977 8.0706 117.86 8.0706C115.914 8.0706 114.579 9.10401 113.855 11.1708L113.697 11.1256C114.074 10.145 114.262 9.1191 114.262 8.04797V2.54902H113.289L109.171 3.61261V4.54041C109.533 4.51024 109.782 4.49515 109.917 4.49515C110.31 4.49515 110.581 4.59322 110.732 4.78934C110.883 4.98546 110.958 5.33244 110.958 5.83029V17.3034C110.958 17.8314 110.838 18.1935 110.596 18.3896C110.37 18.5857 109.925 18.7215 109.261 18.7969ZM134.326 18.3896C133.194 19.4758 131.776 20.0189 130.071 20.0189C128.367 20.0189 126.941 19.4758 125.794 18.3896C124.663 17.3034 124.097 15.8627 124.097 14.0674C124.097 12.257 124.663 10.8088 125.794 9.72255C126.941 8.62125 128.367 8.0706 130.071 8.0706C131.776 8.0706 133.194 8.62125 134.326 9.72255C135.472 10.8088 136.045 12.257 136.045 14.0674C136.045 15.8627 135.472 17.3034 134.326 18.3896ZM128.238 17.7107C128.631 18.4801 129.242 18.8648 130.071 18.8648C130.901 18.8648 131.504 18.4801 131.882 17.7107C132.259 16.9262 132.447 15.7118 132.447 14.0674C132.447 12.423 132.251 11.2085 131.859 10.4241C131.482 9.62449 130.886 9.2247 130.071 9.2247C129.242 9.2247 128.631 9.61694 128.238 10.4014C127.861 11.1859 127.673 12.4079 127.673 14.0674C127.673 15.7118 127.861 16.9262 128.238 17.7107ZM137.192 23.8886V24.839H144.524V23.8886C143.573 23.8282 142.947 23.7075 142.645 23.5265C142.344 23.3454 142.193 22.9381 142.193 22.3045V19.7021C142.63 19.9133 143.166 20.0189 143.8 20.0189C145.565 20.0189 147.036 19.4004 148.212 18.1633C149.404 16.9262 150 15.312 150 13.3206C150 11.7064 149.608 10.4316 148.823 9.49625C148.054 8.54582 146.998 8.0706 145.655 8.0706C144.75 8.0706 143.958 8.35724 143.279 8.93052C142.6 9.5038 142.095 10.2732 141.763 11.2387L141.582 11.1708C141.823 10.6277 141.944 10.1223 141.944 9.65466V8.34215H140.812L137.124 9.6094V10.5598C137.516 10.5297 137.78 10.5146 137.916 10.5146C138.565 10.5447 138.889 10.854 138.889 11.4424V22.395C138.889 22.9381 138.768 23.3077 138.527 23.5039C138.301 23.7151 137.856 23.8433 137.192 23.8886ZM145.791 17.6881C145.293 18.5028 144.592 18.9101 143.686 18.9101C143.098 18.9101 142.6 18.7366 142.193 18.3896V11.2613C142.676 10.6277 143.302 10.3109 144.071 10.3109C144.886 10.3109 145.504 10.6504 145.927 11.3292C146.349 12.0081 146.56 12.9736 146.56 14.2258C146.56 15.7043 146.304 16.8584 145.791 17.6881Z" fill="#4D3499"/>
</svg>
